<svg xmlns="http://www.w3.org/2000/svg" viewBox="0 0 192 192">
  <path fill="#FFA000" d="M95.89 62.3l-13.18 12.34L65.1 38.24l12.21-22.98c2.55-4.79 9.71-4.73 12.19.1l6.39 47z"/>
  <path fill="#F57F17" d="M65.1 38.24L42.77 108.4l-29.9-57.39c-1.72-3.3.2-7.35 3.8-8.03L65.1 38.24"/>
  <path fill="#FFCA28" d="M78.67 148.35l-70.16-42.89L42.77 108.4l35.9 39.95"/>
  <path fill="#FFA000" d="M96.54 75.53L78.67 148.35l33.9-17.59 10.86-66.84"/>
  <path fill="#EF6C00" d="M112.68 90.76l10.76-26.84-27.6-1.59z"/>
  <path fill="#FFCA28" d="M42.77 108.4l35.9 39.95-31.39-65.85z"/>
  <path fill="#FFFFFF" d="M112.57 140.76l36.15-92.21c1.3-3.29 5.44-4.17 8.18-1.75l35.55 31.41L149.8 143.32c-.99 1.36-2.56 2.23-4.21 2.4l-33.02-4.95"/>
  <path fill="#A52714" d="M112.57 140.76c-1.08.77-2.47 1.04-3.69.56l-30.2 7.03 39.88-76.62.04.06c1.46 2.63 2.26 5.49 2.37 8.33l-8.4 60.64"/>
</svg>